<mxfile host="app.diagrams.net" modified="2023-08-05T08:47:25.509Z" agent="Mozilla/5.0 (Windows NT 10.0; Win64; x64) AppleWebKit/537.36 (KHTML, like Gecko) Chrome/97.0.4692.71 Safari/537.36" etag="vRcJiHU_kYDcyxjWFXCL" version="21.6.5" type="github">
  <diagram name="第 1 页" id="6udWS3ySSH0aya89lS8T">
    <mxGraphModel dx="1050" dy="625" grid="1" gridSize="10" guides="1" tooltips="1" connect="1" arrows="1" fold="1" page="1" pageScale="1" pageWidth="2336" pageHeight="1654" math="0" shadow="0">
      <root>
        <mxCell id="0" />
        <mxCell id="1" parent="0" />
        <mxCell id="ciYijQNUN_vE_E4ubc4L-1" value="" style="rounded=1;whiteSpace=wrap;html=1;arcSize=8;fillColor=#d5e8d4;strokeColor=#82b366;" vertex="1" parent="1">
          <mxGeometry x="90" y="70" width="310" height="240" as="geometry" />
        </mxCell>
        <mxCell id="ciYijQNUN_vE_E4ubc4L-2" value="&lt;font style=&quot;font-size: 16px;&quot;&gt;用户态&lt;/font&gt;" style="rounded=1;whiteSpace=wrap;html=1;fontFamily=Comic Sans MS;fillColor=none;strokeColor=none;" vertex="1" parent="1">
          <mxGeometry x="200" y="30" width="120" height="60" as="geometry" />
        </mxCell>
        <mxCell id="ciYijQNUN_vE_E4ubc4L-3" value="&lt;font style=&quot;font-size: 16px;&quot; face=&quot;Comic Sans MS&quot;&gt;进程A&lt;/font&gt;" style="rounded=1;whiteSpace=wrap;html=1;fillColor=#dae8fc;strokeColor=#6c8ebf;" vertex="1" parent="1">
          <mxGeometry x="370" y="160" width="120" height="60" as="geometry" />
        </mxCell>
        <mxCell id="ciYijQNUN_vE_E4ubc4L-4" value="" style="shape=table;startSize=0;container=1;collapsible=0;childLayout=tableLayout;fontFamily=Comic Sans MS;fontSize=16;" vertex="1" parent="1">
          <mxGeometry x="120" y="250" width="270" height="30" as="geometry" />
        </mxCell>
        <mxCell id="ciYijQNUN_vE_E4ubc4L-5" value="" style="shape=tableRow;horizontal=0;startSize=0;swimlaneHead=0;swimlaneBody=0;strokeColor=inherit;top=0;left=0;bottom=0;right=0;collapsible=0;dropTarget=0;fillColor=none;points=[[0,0.5],[1,0.5]];portConstraint=eastwest;" vertex="1" parent="ciYijQNUN_vE_E4ubc4L-4">
          <mxGeometry width="270" height="30" as="geometry" />
        </mxCell>
        <mxCell id="ciYijQNUN_vE_E4ubc4L-6" value="0" style="shape=partialRectangle;html=1;whiteSpace=wrap;connectable=0;strokeColor=inherit;overflow=hidden;fillColor=none;top=0;left=0;bottom=0;right=0;pointerEvents=1;" vertex="1" parent="ciYijQNUN_vE_E4ubc4L-5">
          <mxGeometry width="23" height="30" as="geometry">
            <mxRectangle width="23" height="30" as="alternateBounds" />
          </mxGeometry>
        </mxCell>
        <mxCell id="ciYijQNUN_vE_E4ubc4L-7" value="0" style="shape=partialRectangle;html=1;whiteSpace=wrap;connectable=0;strokeColor=inherit;overflow=hidden;fillColor=none;top=0;left=0;bottom=0;right=0;pointerEvents=1;" vertex="1" parent="ciYijQNUN_vE_E4ubc4L-5">
          <mxGeometry x="23" width="22" height="30" as="geometry">
            <mxRectangle width="22" height="30" as="alternateBounds" />
          </mxGeometry>
        </mxCell>
        <mxCell id="ciYijQNUN_vE_E4ubc4L-8" value="0" style="shape=partialRectangle;html=1;whiteSpace=wrap;connectable=0;strokeColor=inherit;overflow=hidden;fillColor=none;top=0;left=0;bottom=0;right=0;pointerEvents=1;" vertex="1" parent="ciYijQNUN_vE_E4ubc4L-5">
          <mxGeometry x="45" width="23" height="30" as="geometry">
            <mxRectangle width="23" height="30" as="alternateBounds" />
          </mxGeometry>
        </mxCell>
        <mxCell id="ciYijQNUN_vE_E4ubc4L-9" value="0" style="shape=partialRectangle;html=1;whiteSpace=wrap;connectable=0;strokeColor=inherit;overflow=hidden;fillColor=none;top=0;left=0;bottom=0;right=0;pointerEvents=1;" vertex="1" parent="ciYijQNUN_vE_E4ubc4L-5">
          <mxGeometry x="68" width="22" height="30" as="geometry">
            <mxRectangle width="22" height="30" as="alternateBounds" />
          </mxGeometry>
        </mxCell>
        <mxCell id="ciYijQNUN_vE_E4ubc4L-10" value="1" style="shape=partialRectangle;html=1;whiteSpace=wrap;connectable=0;strokeColor=inherit;overflow=hidden;fillColor=none;top=0;left=0;bottom=0;right=0;pointerEvents=1;" vertex="1" parent="ciYijQNUN_vE_E4ubc4L-5">
          <mxGeometry x="90" width="23" height="30" as="geometry">
            <mxRectangle width="23" height="30" as="alternateBounds" />
          </mxGeometry>
        </mxCell>
        <mxCell id="ciYijQNUN_vE_E4ubc4L-11" value="1" style="shape=partialRectangle;html=1;whiteSpace=wrap;connectable=0;strokeColor=inherit;overflow=hidden;fillColor=none;top=0;left=0;bottom=0;right=0;pointerEvents=1;" vertex="1" parent="ciYijQNUN_vE_E4ubc4L-5">
          <mxGeometry x="113" width="20" height="30" as="geometry">
            <mxRectangle width="20" height="30" as="alternateBounds" />
          </mxGeometry>
        </mxCell>
        <mxCell id="ciYijQNUN_vE_E4ubc4L-12" value="0" style="shape=partialRectangle;html=1;whiteSpace=wrap;connectable=0;strokeColor=inherit;overflow=hidden;fillColor=none;top=0;left=0;bottom=0;right=0;pointerEvents=1;" vertex="1" parent="ciYijQNUN_vE_E4ubc4L-5">
          <mxGeometry x="133" width="25" height="30" as="geometry">
            <mxRectangle width="25" height="30" as="alternateBounds" />
          </mxGeometry>
        </mxCell>
        <mxCell id="ciYijQNUN_vE_E4ubc4L-13" value="1" style="shape=partialRectangle;html=1;whiteSpace=wrap;connectable=0;strokeColor=inherit;overflow=hidden;fillColor=none;top=0;left=0;bottom=0;right=0;pointerEvents=1;" vertex="1" parent="ciYijQNUN_vE_E4ubc4L-5">
          <mxGeometry x="158" width="22" height="30" as="geometry">
            <mxRectangle width="22" height="30" as="alternateBounds" />
          </mxGeometry>
        </mxCell>
        <mxCell id="ciYijQNUN_vE_E4ubc4L-14" value="0" style="shape=partialRectangle;html=1;whiteSpace=wrap;connectable=0;strokeColor=inherit;overflow=hidden;fillColor=none;top=0;left=0;bottom=0;right=0;pointerEvents=1;" vertex="1" parent="ciYijQNUN_vE_E4ubc4L-5">
          <mxGeometry x="180" width="23" height="30" as="geometry">
            <mxRectangle width="23" height="30" as="alternateBounds" />
          </mxGeometry>
        </mxCell>
        <mxCell id="ciYijQNUN_vE_E4ubc4L-15" value="1" style="shape=partialRectangle;html=1;whiteSpace=wrap;connectable=0;strokeColor=inherit;overflow=hidden;fillColor=none;top=0;left=0;bottom=0;right=0;pointerEvents=1;" vertex="1" parent="ciYijQNUN_vE_E4ubc4L-5">
          <mxGeometry x="203" width="22" height="30" as="geometry">
            <mxRectangle width="22" height="30" as="alternateBounds" />
          </mxGeometry>
        </mxCell>
        <mxCell id="ciYijQNUN_vE_E4ubc4L-16" value="..." style="shape=partialRectangle;html=1;whiteSpace=wrap;connectable=0;strokeColor=inherit;overflow=hidden;fillColor=none;top=0;left=0;bottom=0;right=0;pointerEvents=1;" vertex="1" parent="ciYijQNUN_vE_E4ubc4L-5">
          <mxGeometry x="225" width="23" height="30" as="geometry">
            <mxRectangle width="23" height="30" as="alternateBounds" />
          </mxGeometry>
        </mxCell>
        <mxCell id="ciYijQNUN_vE_E4ubc4L-17" value="..." style="shape=partialRectangle;html=1;whiteSpace=wrap;connectable=0;strokeColor=inherit;overflow=hidden;fillColor=none;top=0;left=0;bottom=0;right=0;pointerEvents=1;" vertex="1" parent="ciYijQNUN_vE_E4ubc4L-5">
          <mxGeometry x="248" width="22" height="30" as="geometry">
            <mxRectangle width="22" height="30" as="alternateBounds" />
          </mxGeometry>
        </mxCell>
        <mxCell id="ciYijQNUN_vE_E4ubc4L-18" value="&lt;font style=&quot;font-size: 16px;&quot;&gt;read_fds[[原理bitmap]]，数组最大为1024&lt;/font&gt;" style="rounded=1;whiteSpace=wrap;html=1;fontFamily=Comic Sans MS;fillColor=none;strokeColor=none;" vertex="1" parent="1">
          <mxGeometry x="153" y="195" width="200" height="60" as="geometry" />
        </mxCell>
        <mxCell id="ciYijQNUN_vE_E4ubc4L-19" value="" style="rounded=1;whiteSpace=wrap;html=1;arcSize=13;" vertex="1" parent="1">
          <mxGeometry x="100" y="80" width="270" height="90" as="geometry" />
        </mxCell>
        <mxCell id="ciYijQNUN_vE_E4ubc4L-20" value="" style="shape=table;startSize=0;container=1;collapsible=0;childLayout=tableLayout;fontSize=15;" vertex="1" parent="1">
          <mxGeometry x="138" y="110" width="230" height="40" as="geometry" />
        </mxCell>
        <mxCell id="ciYijQNUN_vE_E4ubc4L-21" value="" style="shape=tableRow;horizontal=0;startSize=0;swimlaneHead=0;swimlaneBody=0;strokeColor=inherit;top=0;left=0;bottom=0;right=0;collapsible=0;dropTarget=0;fillColor=none;points=[[0,0.5],[1,0.5]];portConstraint=eastwest;fontSize=15;" vertex="1" parent="ciYijQNUN_vE_E4ubc4L-20">
          <mxGeometry width="230" height="40" as="geometry" />
        </mxCell>
        <mxCell id="ciYijQNUN_vE_E4ubc4L-22" value="4" style="shape=partialRectangle;html=1;whiteSpace=wrap;connectable=0;strokeColor=inherit;overflow=hidden;fillColor=none;top=0;left=0;bottom=0;right=0;pointerEvents=1;fontSize=16;" vertex="1" parent="ciYijQNUN_vE_E4ubc4L-21">
          <mxGeometry width="46" height="40" as="geometry">
            <mxRectangle width="46" height="40" as="alternateBounds" />
          </mxGeometry>
        </mxCell>
        <mxCell id="ciYijQNUN_vE_E4ubc4L-23" value="5" style="shape=partialRectangle;html=1;whiteSpace=wrap;connectable=0;strokeColor=inherit;overflow=hidden;fillColor=none;top=0;left=0;bottom=0;right=0;pointerEvents=1;fontSize=16;" vertex="1" parent="ciYijQNUN_vE_E4ubc4L-21">
          <mxGeometry x="46" width="46" height="40" as="geometry">
            <mxRectangle width="46" height="40" as="alternateBounds" />
          </mxGeometry>
        </mxCell>
        <mxCell id="ciYijQNUN_vE_E4ubc4L-24" value="7" style="shape=partialRectangle;html=1;whiteSpace=wrap;connectable=0;strokeColor=inherit;overflow=hidden;fillColor=none;top=0;left=0;bottom=0;right=0;pointerEvents=1;fontSize=16;" vertex="1" parent="ciYijQNUN_vE_E4ubc4L-21">
          <mxGeometry x="92" width="46" height="40" as="geometry">
            <mxRectangle width="46" height="40" as="alternateBounds" />
          </mxGeometry>
        </mxCell>
        <mxCell id="ciYijQNUN_vE_E4ubc4L-25" value="8" style="shape=partialRectangle;html=1;whiteSpace=wrap;connectable=0;strokeColor=inherit;overflow=hidden;fillColor=none;top=0;left=0;bottom=0;right=0;pointerEvents=1;fontSize=16;" vertex="1" parent="ciYijQNUN_vE_E4ubc4L-21">
          <mxGeometry x="138" width="46" height="40" as="geometry">
            <mxRectangle width="46" height="40" as="alternateBounds" />
          </mxGeometry>
        </mxCell>
        <mxCell id="ciYijQNUN_vE_E4ubc4L-26" value="10" style="shape=partialRectangle;html=1;whiteSpace=wrap;connectable=0;strokeColor=inherit;overflow=hidden;fillColor=none;top=0;left=0;bottom=0;right=0;pointerEvents=1;fontSize=16;" vertex="1" parent="ciYijQNUN_vE_E4ubc4L-21">
          <mxGeometry x="184" width="46" height="40" as="geometry">
            <mxRectangle width="46" height="40" as="alternateBounds" />
          </mxGeometry>
        </mxCell>
        <mxCell id="ciYijQNUN_vE_E4ubc4L-27" value="&lt;font style=&quot;font-size: 16px;&quot;&gt;fd数组&lt;/font&gt;" style="rounded=1;whiteSpace=wrap;html=1;fontFamily=Comic Sans MS;fillColor=none;strokeColor=none;" vertex="1" parent="1">
          <mxGeometry x="70" y="70" width="120" height="60" as="geometry" />
        </mxCell>
        <mxCell id="ciYijQNUN_vE_E4ubc4L-31" style="edgeStyle=orthogonalEdgeStyle;rounded=0;orthogonalLoop=1;jettySize=auto;html=1;exitX=0.5;exitY=1;exitDx=0;exitDy=0;entryX=0.5;entryY=0;entryDx=0;entryDy=0;" edge="1" parent="1" source="ciYijQNUN_vE_E4ubc4L-28" target="ciYijQNUN_vE_E4ubc4L-29">
          <mxGeometry relative="1" as="geometry" />
        </mxCell>
        <mxCell id="ciYijQNUN_vE_E4ubc4L-28" value="&lt;font style=&quot;font-size: 16px;&quot; face=&quot;Comic Sans MS&quot;&gt;客户端&lt;/font&gt;" style="rounded=1;whiteSpace=wrap;html=1;fillColor=#f5f5f5;fontColor=#333333;strokeColor=#666666;" vertex="1" parent="1">
          <mxGeometry x="540" y="85" width="120" height="40" as="geometry" />
        </mxCell>
        <mxCell id="ciYijQNUN_vE_E4ubc4L-32" style="edgeStyle=orthogonalEdgeStyle;rounded=0;orthogonalLoop=1;jettySize=auto;html=1;exitX=0.5;exitY=1;exitDx=0;exitDy=0;entryX=0.5;entryY=0;entryDx=0;entryDy=0;" edge="1" parent="1" source="ciYijQNUN_vE_E4ubc4L-29" target="ciYijQNUN_vE_E4ubc4L-30">
          <mxGeometry relative="1" as="geometry" />
        </mxCell>
        <mxCell id="ciYijQNUN_vE_E4ubc4L-29" value="&lt;font style=&quot;font-size: 16px;&quot; face=&quot;Comic Sans MS&quot;&gt;网卡&lt;/font&gt;" style="rounded=1;whiteSpace=wrap;html=1;fillColor=#f5f5f5;fontColor=#333333;strokeColor=#666666;" vertex="1" parent="1">
          <mxGeometry x="540" y="175" width="120" height="40" as="geometry" />
        </mxCell>
        <mxCell id="ciYijQNUN_vE_E4ubc4L-30" value="&lt;font style=&quot;font-size: 16px;&quot; face=&quot;Comic Sans MS&quot;&gt;内核环形缓冲区&lt;/font&gt;" style="rounded=1;whiteSpace=wrap;html=1;fillColor=#f5f5f5;fontColor=#333333;strokeColor=#666666;" vertex="1" parent="1">
          <mxGeometry x="540" y="255" width="120" height="40" as="geometry" />
        </mxCell>
        <mxCell id="ciYijQNUN_vE_E4ubc4L-33" value="&lt;font style=&quot;font-size: 16px;&quot;&gt;DMA拷贝&lt;/font&gt;" style="rounded=1;whiteSpace=wrap;html=1;fontFamily=Comic Sans MS;fillColor=none;strokeColor=none;" vertex="1" parent="1">
          <mxGeometry x="540" y="205" width="120" height="60" as="geometry" />
        </mxCell>
        <mxCell id="ciYijQNUN_vE_E4ubc4L-34" value="&lt;font style=&quot;font-size: 16px;&quot;&gt;fd数组中最大的文件描述符是10&lt;/font&gt;" style="rounded=1;whiteSpace=wrap;html=1;fontFamily=Comic Sans MS;fillColor=none;strokeColor=none;" vertex="1" parent="1">
          <mxGeometry x="380" y="95" width="120" height="60" as="geometry" />
        </mxCell>
        <mxCell id="ciYijQNUN_vE_E4ubc4L-35" value="" style="rounded=1;whiteSpace=wrap;html=1;arcSize=8;fillColor=#e1d5e7;strokeColor=#9673a6;" vertex="1" parent="1">
          <mxGeometry x="80" y="380" width="430" height="280" as="geometry" />
        </mxCell>
        <mxCell id="ciYijQNUN_vE_E4ubc4L-36" value="&lt;font style=&quot;font-size: 16px;&quot;&gt;内核态&lt;/font&gt;" style="rounded=1;whiteSpace=wrap;html=1;fontFamily=Comic Sans MS;fillColor=none;strokeColor=none;" vertex="1" parent="1">
          <mxGeometry x="190" y="340" width="120" height="60" as="geometry" />
        </mxCell>
        <mxCell id="ciYijQNUN_vE_E4ubc4L-63" value="" style="shape=table;startSize=0;container=1;collapsible=0;childLayout=tableLayout;" vertex="1" parent="1">
          <mxGeometry x="100" y="390" width="20" height="250" as="geometry" />
        </mxCell>
        <mxCell id="ciYijQNUN_vE_E4ubc4L-64" value="" style="shape=tableRow;horizontal=0;startSize=0;swimlaneHead=0;swimlaneBody=0;strokeColor=inherit;top=0;left=0;bottom=0;right=0;collapsible=0;dropTarget=0;fillColor=none;points=[[0,0.5],[1,0.5]];portConstraint=eastwest;" vertex="1" parent="ciYijQNUN_vE_E4ubc4L-63">
          <mxGeometry width="20" height="22" as="geometry" />
        </mxCell>
        <mxCell id="ciYijQNUN_vE_E4ubc4L-65" value="" style="shape=partialRectangle;html=1;whiteSpace=wrap;connectable=0;strokeColor=inherit;overflow=hidden;fillColor=none;top=0;left=0;bottom=0;right=0;pointerEvents=1;" vertex="1" parent="ciYijQNUN_vE_E4ubc4L-64">
          <mxGeometry width="20" height="22" as="geometry">
            <mxRectangle width="20" height="22" as="alternateBounds" />
          </mxGeometry>
        </mxCell>
        <mxCell id="ciYijQNUN_vE_E4ubc4L-66" value="" style="shape=tableRow;horizontal=0;startSize=0;swimlaneHead=0;swimlaneBody=0;strokeColor=inherit;top=0;left=0;bottom=0;right=0;collapsible=0;dropTarget=0;fillColor=none;points=[[0,0.5],[1,0.5]];portConstraint=eastwest;" vertex="1" parent="ciYijQNUN_vE_E4ubc4L-63">
          <mxGeometry y="22" width="20" height="19" as="geometry" />
        </mxCell>
        <mxCell id="ciYijQNUN_vE_E4ubc4L-67" value="" style="shape=partialRectangle;html=1;whiteSpace=wrap;connectable=0;strokeColor=inherit;overflow=hidden;fillColor=none;top=0;left=0;bottom=0;right=0;pointerEvents=1;" vertex="1" parent="ciYijQNUN_vE_E4ubc4L-66">
          <mxGeometry width="20" height="19" as="geometry">
            <mxRectangle width="20" height="19" as="alternateBounds" />
          </mxGeometry>
        </mxCell>
        <mxCell id="ciYijQNUN_vE_E4ubc4L-68" value="" style="shape=tableRow;horizontal=0;startSize=0;swimlaneHead=0;swimlaneBody=0;strokeColor=inherit;top=0;left=0;bottom=0;right=0;collapsible=0;dropTarget=0;fillColor=none;points=[[0,0.5],[1,0.5]];portConstraint=eastwest;" vertex="1" parent="ciYijQNUN_vE_E4ubc4L-63">
          <mxGeometry y="41" width="20" height="22" as="geometry" />
        </mxCell>
        <mxCell id="ciYijQNUN_vE_E4ubc4L-69" value="" style="shape=partialRectangle;html=1;whiteSpace=wrap;connectable=0;strokeColor=inherit;overflow=hidden;fillColor=none;top=0;left=0;bottom=0;right=0;pointerEvents=1;" vertex="1" parent="ciYijQNUN_vE_E4ubc4L-68">
          <mxGeometry width="20" height="22" as="geometry">
            <mxRectangle width="20" height="22" as="alternateBounds" />
          </mxGeometry>
        </mxCell>
        <mxCell id="ciYijQNUN_vE_E4ubc4L-72" value="" style="shape=tableRow;horizontal=0;startSize=0;swimlaneHead=0;swimlaneBody=0;strokeColor=inherit;top=0;left=0;bottom=0;right=0;collapsible=0;dropTarget=0;fillColor=none;points=[[0,0.5],[1,0.5]];portConstraint=eastwest;" vertex="1" parent="ciYijQNUN_vE_E4ubc4L-63">
          <mxGeometry y="63" width="20" height="19" as="geometry" />
        </mxCell>
        <mxCell id="ciYijQNUN_vE_E4ubc4L-73" value="" style="shape=partialRectangle;html=1;whiteSpace=wrap;connectable=0;strokeColor=inherit;overflow=hidden;fillColor=none;top=0;left=0;bottom=0;right=0;pointerEvents=1;" vertex="1" parent="ciYijQNUN_vE_E4ubc4L-72">
          <mxGeometry width="20" height="19" as="geometry">
            <mxRectangle width="20" height="19" as="alternateBounds" />
          </mxGeometry>
        </mxCell>
        <mxCell id="ciYijQNUN_vE_E4ubc4L-74" value="" style="shape=tableRow;horizontal=0;startSize=0;swimlaneHead=0;swimlaneBody=0;strokeColor=inherit;top=0;left=0;bottom=0;right=0;collapsible=0;dropTarget=0;fillColor=none;points=[[0,0.5],[1,0.5]];portConstraint=eastwest;" vertex="1" parent="ciYijQNUN_vE_E4ubc4L-63">
          <mxGeometry y="82" width="20" height="21" as="geometry" />
        </mxCell>
        <mxCell id="ciYijQNUN_vE_E4ubc4L-75" value="" style="shape=partialRectangle;html=1;whiteSpace=wrap;connectable=0;strokeColor=inherit;overflow=hidden;fillColor=none;top=0;left=0;bottom=0;right=0;pointerEvents=1;" vertex="1" parent="ciYijQNUN_vE_E4ubc4L-74">
          <mxGeometry width="20" height="21" as="geometry">
            <mxRectangle width="20" height="21" as="alternateBounds" />
          </mxGeometry>
        </mxCell>
        <mxCell id="ciYijQNUN_vE_E4ubc4L-76" value="" style="shape=tableRow;horizontal=0;startSize=0;swimlaneHead=0;swimlaneBody=0;strokeColor=inherit;top=0;left=0;bottom=0;right=0;collapsible=0;dropTarget=0;fillColor=none;points=[[0,0.5],[1,0.5]];portConstraint=eastwest;" vertex="1" parent="ciYijQNUN_vE_E4ubc4L-63">
          <mxGeometry y="103" width="20" height="22" as="geometry" />
        </mxCell>
        <mxCell id="ciYijQNUN_vE_E4ubc4L-77" value="" style="shape=partialRectangle;html=1;whiteSpace=wrap;connectable=0;strokeColor=inherit;overflow=hidden;fillColor=none;top=0;left=0;bottom=0;right=0;pointerEvents=1;" vertex="1" parent="ciYijQNUN_vE_E4ubc4L-76">
          <mxGeometry width="20" height="22" as="geometry">
            <mxRectangle width="20" height="22" as="alternateBounds" />
          </mxGeometry>
        </mxCell>
        <mxCell id="ciYijQNUN_vE_E4ubc4L-78" value="" style="shape=tableRow;horizontal=0;startSize=0;swimlaneHead=0;swimlaneBody=0;strokeColor=inherit;top=0;left=0;bottom=0;right=0;collapsible=0;dropTarget=0;fillColor=none;points=[[0,0.5],[1,0.5]];portConstraint=eastwest;" vertex="1" parent="ciYijQNUN_vE_E4ubc4L-63">
          <mxGeometry y="125" width="20" height="19" as="geometry" />
        </mxCell>
        <mxCell id="ciYijQNUN_vE_E4ubc4L-79" value="" style="shape=partialRectangle;html=1;whiteSpace=wrap;connectable=0;strokeColor=inherit;overflow=hidden;fillColor=none;top=0;left=0;bottom=0;right=0;pointerEvents=1;" vertex="1" parent="ciYijQNUN_vE_E4ubc4L-78">
          <mxGeometry width="20" height="19" as="geometry">
            <mxRectangle width="20" height="19" as="alternateBounds" />
          </mxGeometry>
        </mxCell>
        <mxCell id="ciYijQNUN_vE_E4ubc4L-80" value="" style="shape=tableRow;horizontal=0;startSize=0;swimlaneHead=0;swimlaneBody=0;strokeColor=inherit;top=0;left=0;bottom=0;right=0;collapsible=0;dropTarget=0;fillColor=none;points=[[0,0.5],[1,0.5]];portConstraint=eastwest;" vertex="1" parent="ciYijQNUN_vE_E4ubc4L-63">
          <mxGeometry y="144" width="20" height="22" as="geometry" />
        </mxCell>
        <mxCell id="ciYijQNUN_vE_E4ubc4L-81" value="" style="shape=partialRectangle;html=1;whiteSpace=wrap;connectable=0;strokeColor=inherit;overflow=hidden;fillColor=none;top=0;left=0;bottom=0;right=0;pointerEvents=1;" vertex="1" parent="ciYijQNUN_vE_E4ubc4L-80">
          <mxGeometry width="20" height="22" as="geometry">
            <mxRectangle width="20" height="22" as="alternateBounds" />
          </mxGeometry>
        </mxCell>
        <mxCell id="ciYijQNUN_vE_E4ubc4L-82" value="" style="shape=tableRow;horizontal=0;startSize=0;swimlaneHead=0;swimlaneBody=0;strokeColor=inherit;top=0;left=0;bottom=0;right=0;collapsible=0;dropTarget=0;fillColor=none;points=[[0,0.5],[1,0.5]];portConstraint=eastwest;" vertex="1" parent="ciYijQNUN_vE_E4ubc4L-63">
          <mxGeometry y="166" width="20" height="22" as="geometry" />
        </mxCell>
        <mxCell id="ciYijQNUN_vE_E4ubc4L-83" value="" style="shape=partialRectangle;html=1;whiteSpace=wrap;connectable=0;strokeColor=inherit;overflow=hidden;fillColor=none;top=0;left=0;bottom=0;right=0;pointerEvents=1;" vertex="1" parent="ciYijQNUN_vE_E4ubc4L-82">
          <mxGeometry width="20" height="22" as="geometry">
            <mxRectangle width="20" height="22" as="alternateBounds" />
          </mxGeometry>
        </mxCell>
        <mxCell id="ciYijQNUN_vE_E4ubc4L-84" value="" style="shape=tableRow;horizontal=0;startSize=0;swimlaneHead=0;swimlaneBody=0;strokeColor=inherit;top=0;left=0;bottom=0;right=0;collapsible=0;dropTarget=0;fillColor=none;points=[[0,0.5],[1,0.5]];portConstraint=eastwest;" vertex="1" parent="ciYijQNUN_vE_E4ubc4L-63">
          <mxGeometry y="188" width="20" height="19" as="geometry" />
        </mxCell>
        <mxCell id="ciYijQNUN_vE_E4ubc4L-85" value="" style="shape=partialRectangle;html=1;whiteSpace=wrap;connectable=0;strokeColor=inherit;overflow=hidden;fillColor=none;top=0;left=0;bottom=0;right=0;pointerEvents=1;" vertex="1" parent="ciYijQNUN_vE_E4ubc4L-84">
          <mxGeometry width="20" height="19" as="geometry">
            <mxRectangle width="20" height="19" as="alternateBounds" />
          </mxGeometry>
        </mxCell>
        <mxCell id="ciYijQNUN_vE_E4ubc4L-86" value="" style="shape=tableRow;horizontal=0;startSize=0;swimlaneHead=0;swimlaneBody=0;strokeColor=inherit;top=0;left=0;bottom=0;right=0;collapsible=0;dropTarget=0;fillColor=none;points=[[0,0.5],[1,0.5]];portConstraint=eastwest;" vertex="1" parent="ciYijQNUN_vE_E4ubc4L-63">
          <mxGeometry y="207" width="20" height="21" as="geometry" />
        </mxCell>
        <mxCell id="ciYijQNUN_vE_E4ubc4L-87" value="" style="shape=partialRectangle;html=1;whiteSpace=wrap;connectable=0;strokeColor=inherit;overflow=hidden;fillColor=none;top=0;left=0;bottom=0;right=0;pointerEvents=1;" vertex="1" parent="ciYijQNUN_vE_E4ubc4L-86">
          <mxGeometry width="20" height="21" as="geometry">
            <mxRectangle width="20" height="21" as="alternateBounds" />
          </mxGeometry>
        </mxCell>
        <mxCell id="ciYijQNUN_vE_E4ubc4L-70" value="" style="shape=tableRow;horizontal=0;startSize=0;swimlaneHead=0;swimlaneBody=0;strokeColor=inherit;top=0;left=0;bottom=0;right=0;collapsible=0;dropTarget=0;fillColor=none;points=[[0,0.5],[1,0.5]];portConstraint=eastwest;" vertex="1" parent="ciYijQNUN_vE_E4ubc4L-63">
          <mxGeometry y="228" width="20" height="22" as="geometry" />
        </mxCell>
        <mxCell id="ciYijQNUN_vE_E4ubc4L-71" value="" style="shape=partialRectangle;html=1;whiteSpace=wrap;connectable=0;strokeColor=inherit;overflow=hidden;fillColor=none;top=0;left=0;bottom=0;right=0;pointerEvents=1;" vertex="1" parent="ciYijQNUN_vE_E4ubc4L-70">
          <mxGeometry width="20" height="22" as="geometry">
            <mxRectangle width="20" height="22" as="alternateBounds" />
          </mxGeometry>
        </mxCell>
        <mxCell id="ciYijQNUN_vE_E4ubc4L-88" style="edgeStyle=orthogonalEdgeStyle;rounded=0;orthogonalLoop=1;jettySize=auto;html=1;exitX=0;exitY=0.5;exitDx=0;exitDy=0;entryX=0.58;entryY=-0.042;entryDx=0;entryDy=0;entryPerimeter=0;" edge="1" parent="1" source="ciYijQNUN_vE_E4ubc4L-5" target="ciYijQNUN_vE_E4ubc4L-64">
          <mxGeometry relative="1" as="geometry">
            <Array as="points">
              <mxPoint x="112" y="265" />
            </Array>
          </mxGeometry>
        </mxCell>
        <mxCell id="ciYijQNUN_vE_E4ubc4L-90" value="&lt;font style=&quot;font-size: 16px;&quot;&gt;select系统调用&lt;br&gt;复制bitmap到内核&lt;br&gt;&lt;/font&gt;" style="rounded=1;whiteSpace=wrap;html=1;fontFamily=Comic Sans MS;fillColor=none;strokeColor=none;" vertex="1" parent="1">
          <mxGeometry x="70" y="310" width="140" height="60" as="geometry" />
        </mxCell>
        <mxCell id="ciYijQNUN_vE_E4ubc4L-147" style="edgeStyle=orthogonalEdgeStyle;rounded=0;orthogonalLoop=1;jettySize=auto;html=1;exitX=1;exitY=0.25;exitDx=0;exitDy=0;" edge="1" parent="1" source="ciYijQNUN_vE_E4ubc4L-91" target="ciYijQNUN_vE_E4ubc4L-98">
          <mxGeometry relative="1" as="geometry" />
        </mxCell>
        <mxCell id="ciYijQNUN_vE_E4ubc4L-148" style="edgeStyle=orthogonalEdgeStyle;rounded=0;orthogonalLoop=1;jettySize=auto;html=1;exitX=1;exitY=0.75;exitDx=0;exitDy=0;" edge="1" parent="1" source="ciYijQNUN_vE_E4ubc4L-91" target="ciYijQNUN_vE_E4ubc4L-103">
          <mxGeometry relative="1" as="geometry" />
        </mxCell>
        <mxCell id="ciYijQNUN_vE_E4ubc4L-91" value="&lt;font style=&quot;font-size: 16px;&quot; face=&quot;Comic Sans MS&quot;&gt;socket-4&lt;/font&gt;" style="rounded=1;whiteSpace=wrap;html=1;fillColor=#f5f5f5;fontColor=#333333;strokeColor=#666666;" vertex="1" parent="1">
          <mxGeometry x="153" y="400" width="120" height="40" as="geometry" />
        </mxCell>
        <mxCell id="ciYijQNUN_vE_E4ubc4L-150" style="edgeStyle=orthogonalEdgeStyle;rounded=0;orthogonalLoop=1;jettySize=auto;html=1;exitX=1;exitY=0.25;exitDx=0;exitDy=0;" edge="1" parent="1" source="ciYijQNUN_vE_E4ubc4L-92" target="ciYijQNUN_vE_E4ubc4L-113">
          <mxGeometry relative="1" as="geometry" />
        </mxCell>
        <mxCell id="ciYijQNUN_vE_E4ubc4L-151" style="edgeStyle=orthogonalEdgeStyle;rounded=0;orthogonalLoop=1;jettySize=auto;html=1;exitX=1;exitY=0.75;exitDx=0;exitDy=0;" edge="1" parent="1" source="ciYijQNUN_vE_E4ubc4L-92" target="ciYijQNUN_vE_E4ubc4L-108">
          <mxGeometry relative="1" as="geometry" />
        </mxCell>
        <mxCell id="ciYijQNUN_vE_E4ubc4L-92" value="&lt;font face=&quot;Comic Sans MS&quot; style=&quot;font-size: 15px;&quot;&gt;socket-5&lt;/font&gt;" style="rounded=1;whiteSpace=wrap;html=1;fillColor=#f5f5f5;fontColor=#333333;strokeColor=#666666;" vertex="1" parent="1">
          <mxGeometry x="153" y="450" width="120" height="40" as="geometry" />
        </mxCell>
        <mxCell id="ciYijQNUN_vE_E4ubc4L-152" style="edgeStyle=orthogonalEdgeStyle;rounded=0;orthogonalLoop=1;jettySize=auto;html=1;exitX=1;exitY=0.25;exitDx=0;exitDy=0;" edge="1" parent="1" source="ciYijQNUN_vE_E4ubc4L-93" target="ciYijQNUN_vE_E4ubc4L-123">
          <mxGeometry relative="1" as="geometry" />
        </mxCell>
        <mxCell id="ciYijQNUN_vE_E4ubc4L-153" style="edgeStyle=orthogonalEdgeStyle;rounded=0;orthogonalLoop=1;jettySize=auto;html=1;exitX=1;exitY=0.75;exitDx=0;exitDy=0;entryX=0;entryY=0.5;entryDx=0;entryDy=0;" edge="1" parent="1" source="ciYijQNUN_vE_E4ubc4L-93" target="ciYijQNUN_vE_E4ubc4L-118">
          <mxGeometry relative="1" as="geometry" />
        </mxCell>
        <mxCell id="ciYijQNUN_vE_E4ubc4L-93" value="&lt;font style=&quot;font-size: 16px;&quot; face=&quot;Comic Sans MS&quot;&gt;socket-7&lt;/font&gt;" style="rounded=1;whiteSpace=wrap;html=1;fillColor=#f5f5f5;fontColor=#333333;strokeColor=#666666;" vertex="1" parent="1">
          <mxGeometry x="153" y="500" width="120" height="40" as="geometry" />
        </mxCell>
        <mxCell id="ciYijQNUN_vE_E4ubc4L-154" style="edgeStyle=orthogonalEdgeStyle;rounded=0;orthogonalLoop=1;jettySize=auto;html=1;exitX=1;exitY=0.25;exitDx=0;exitDy=0;" edge="1" parent="1" source="ciYijQNUN_vE_E4ubc4L-94" target="ciYijQNUN_vE_E4ubc4L-133">
          <mxGeometry relative="1" as="geometry" />
        </mxCell>
        <mxCell id="ciYijQNUN_vE_E4ubc4L-155" style="edgeStyle=orthogonalEdgeStyle;rounded=0;orthogonalLoop=1;jettySize=auto;html=1;exitX=1;exitY=0.75;exitDx=0;exitDy=0;entryX=0;entryY=0.5;entryDx=0;entryDy=0;" edge="1" parent="1" source="ciYijQNUN_vE_E4ubc4L-94" target="ciYijQNUN_vE_E4ubc4L-128">
          <mxGeometry relative="1" as="geometry" />
        </mxCell>
        <mxCell id="ciYijQNUN_vE_E4ubc4L-94" value="&lt;font style=&quot;font-size: 16px;&quot; face=&quot;Comic Sans MS&quot;&gt;socket-8&lt;/font&gt;" style="rounded=1;whiteSpace=wrap;html=1;fillColor=#f5f5f5;fontColor=#333333;strokeColor=#666666;" vertex="1" parent="1">
          <mxGeometry x="153" y="550" width="120" height="40" as="geometry" />
        </mxCell>
        <mxCell id="ciYijQNUN_vE_E4ubc4L-156" style="edgeStyle=orthogonalEdgeStyle;rounded=0;orthogonalLoop=1;jettySize=auto;html=1;exitX=1;exitY=0.25;exitDx=0;exitDy=0;" edge="1" parent="1" source="ciYijQNUN_vE_E4ubc4L-95" target="ciYijQNUN_vE_E4ubc4L-143">
          <mxGeometry relative="1" as="geometry" />
        </mxCell>
        <mxCell id="ciYijQNUN_vE_E4ubc4L-157" style="edgeStyle=orthogonalEdgeStyle;rounded=0;orthogonalLoop=1;jettySize=auto;html=1;exitX=1;exitY=0.75;exitDx=0;exitDy=0;" edge="1" parent="1" source="ciYijQNUN_vE_E4ubc4L-95" target="ciYijQNUN_vE_E4ubc4L-138">
          <mxGeometry relative="1" as="geometry" />
        </mxCell>
        <mxCell id="ciYijQNUN_vE_E4ubc4L-95" value="&lt;font style=&quot;font-size: 16px;&quot; face=&quot;Comic Sans MS&quot;&gt;socket-10&lt;/font&gt;" style="rounded=1;whiteSpace=wrap;html=1;fillColor=#f5f5f5;fontColor=#333333;strokeColor=#666666;" vertex="1" parent="1">
          <mxGeometry x="153" y="600" width="120" height="40" as="geometry" />
        </mxCell>
        <mxCell id="ciYijQNUN_vE_E4ubc4L-97" value="" style="shape=table;startSize=0;container=1;collapsible=0;childLayout=tableLayout;" vertex="1" parent="1">
          <mxGeometry x="360" y="400" width="140" height="20" as="geometry" />
        </mxCell>
        <mxCell id="ciYijQNUN_vE_E4ubc4L-98" value="" style="shape=tableRow;horizontal=0;startSize=0;swimlaneHead=0;swimlaneBody=0;strokeColor=inherit;top=0;left=0;bottom=0;right=0;collapsible=0;dropTarget=0;fillColor=none;points=[[0,0.5],[1,0.5]];portConstraint=eastwest;" vertex="1" parent="ciYijQNUN_vE_E4ubc4L-97">
          <mxGeometry width="140" height="20" as="geometry" />
        </mxCell>
        <mxCell id="ciYijQNUN_vE_E4ubc4L-99" value="" style="shape=partialRectangle;html=1;whiteSpace=wrap;connectable=0;strokeColor=inherit;overflow=hidden;fillColor=none;top=0;left=0;bottom=0;right=0;pointerEvents=1;" vertex="1" parent="ciYijQNUN_vE_E4ubc4L-98">
          <mxGeometry width="47" height="20" as="geometry">
            <mxRectangle width="47" height="20" as="alternateBounds" />
          </mxGeometry>
        </mxCell>
        <mxCell id="ciYijQNUN_vE_E4ubc4L-100" value="" style="shape=partialRectangle;html=1;whiteSpace=wrap;connectable=0;strokeColor=inherit;overflow=hidden;fillColor=none;top=0;left=0;bottom=0;right=0;pointerEvents=1;" vertex="1" parent="ciYijQNUN_vE_E4ubc4L-98">
          <mxGeometry x="47" width="46" height="20" as="geometry">
            <mxRectangle width="46" height="20" as="alternateBounds" />
          </mxGeometry>
        </mxCell>
        <mxCell id="ciYijQNUN_vE_E4ubc4L-101" value="" style="shape=partialRectangle;html=1;whiteSpace=wrap;connectable=0;strokeColor=inherit;overflow=hidden;fillColor=none;top=0;left=0;bottom=0;right=0;pointerEvents=1;" vertex="1" parent="ciYijQNUN_vE_E4ubc4L-98">
          <mxGeometry x="93" width="47" height="20" as="geometry">
            <mxRectangle width="47" height="20" as="alternateBounds" />
          </mxGeometry>
        </mxCell>
        <mxCell id="ciYijQNUN_vE_E4ubc4L-102" value="" style="shape=table;startSize=0;container=1;collapsible=0;childLayout=tableLayout;" vertex="1" parent="1">
          <mxGeometry x="360" y="420" width="140" height="20" as="geometry" />
        </mxCell>
        <mxCell id="ciYijQNUN_vE_E4ubc4L-103" value="" style="shape=tableRow;horizontal=0;startSize=0;swimlaneHead=0;swimlaneBody=0;strokeColor=inherit;top=0;left=0;bottom=0;right=0;collapsible=0;dropTarget=0;fillColor=none;points=[[0,0.5],[1,0.5]];portConstraint=eastwest;" vertex="1" parent="ciYijQNUN_vE_E4ubc4L-102">
          <mxGeometry width="140" height="20" as="geometry" />
        </mxCell>
        <mxCell id="ciYijQNUN_vE_E4ubc4L-104" value="" style="shape=partialRectangle;html=1;whiteSpace=wrap;connectable=0;strokeColor=inherit;overflow=hidden;fillColor=none;top=0;left=0;bottom=0;right=0;pointerEvents=1;" vertex="1" parent="ciYijQNUN_vE_E4ubc4L-103">
          <mxGeometry width="47" height="20" as="geometry">
            <mxRectangle width="47" height="20" as="alternateBounds" />
          </mxGeometry>
        </mxCell>
        <mxCell id="ciYijQNUN_vE_E4ubc4L-105" value="" style="shape=partialRectangle;html=1;whiteSpace=wrap;connectable=0;strokeColor=inherit;overflow=hidden;fillColor=none;top=0;left=0;bottom=0;right=0;pointerEvents=1;" vertex="1" parent="ciYijQNUN_vE_E4ubc4L-103">
          <mxGeometry x="47" width="46" height="20" as="geometry">
            <mxRectangle width="46" height="20" as="alternateBounds" />
          </mxGeometry>
        </mxCell>
        <mxCell id="ciYijQNUN_vE_E4ubc4L-106" value="" style="shape=partialRectangle;html=1;whiteSpace=wrap;connectable=0;strokeColor=inherit;overflow=hidden;fillColor=none;top=0;left=0;bottom=0;right=0;pointerEvents=1;" vertex="1" parent="ciYijQNUN_vE_E4ubc4L-103">
          <mxGeometry x="93" width="47" height="20" as="geometry">
            <mxRectangle width="47" height="20" as="alternateBounds" />
          </mxGeometry>
        </mxCell>
        <mxCell id="ciYijQNUN_vE_E4ubc4L-107" value="" style="shape=table;startSize=0;container=1;collapsible=0;childLayout=tableLayout;" vertex="1" parent="1">
          <mxGeometry x="360" y="470" width="140" height="20" as="geometry" />
        </mxCell>
        <mxCell id="ciYijQNUN_vE_E4ubc4L-108" value="" style="shape=tableRow;horizontal=0;startSize=0;swimlaneHead=0;swimlaneBody=0;strokeColor=inherit;top=0;left=0;bottom=0;right=0;collapsible=0;dropTarget=0;fillColor=none;points=[[0,0.5],[1,0.5]];portConstraint=eastwest;" vertex="1" parent="ciYijQNUN_vE_E4ubc4L-107">
          <mxGeometry width="140" height="20" as="geometry" />
        </mxCell>
        <mxCell id="ciYijQNUN_vE_E4ubc4L-109" value="" style="shape=partialRectangle;html=1;whiteSpace=wrap;connectable=0;strokeColor=inherit;overflow=hidden;fillColor=none;top=0;left=0;bottom=0;right=0;pointerEvents=1;" vertex="1" parent="ciYijQNUN_vE_E4ubc4L-108">
          <mxGeometry width="47" height="20" as="geometry">
            <mxRectangle width="47" height="20" as="alternateBounds" />
          </mxGeometry>
        </mxCell>
        <mxCell id="ciYijQNUN_vE_E4ubc4L-110" value="" style="shape=partialRectangle;html=1;whiteSpace=wrap;connectable=0;strokeColor=inherit;overflow=hidden;fillColor=none;top=0;left=0;bottom=0;right=0;pointerEvents=1;" vertex="1" parent="ciYijQNUN_vE_E4ubc4L-108">
          <mxGeometry x="47" width="46" height="20" as="geometry">
            <mxRectangle width="46" height="20" as="alternateBounds" />
          </mxGeometry>
        </mxCell>
        <mxCell id="ciYijQNUN_vE_E4ubc4L-111" value="" style="shape=partialRectangle;html=1;whiteSpace=wrap;connectable=0;strokeColor=inherit;overflow=hidden;fillColor=none;top=0;left=0;bottom=0;right=0;pointerEvents=1;" vertex="1" parent="ciYijQNUN_vE_E4ubc4L-108">
          <mxGeometry x="93" width="47" height="20" as="geometry">
            <mxRectangle width="47" height="20" as="alternateBounds" />
          </mxGeometry>
        </mxCell>
        <mxCell id="ciYijQNUN_vE_E4ubc4L-112" value="" style="shape=table;startSize=0;container=1;collapsible=0;childLayout=tableLayout;" vertex="1" parent="1">
          <mxGeometry x="360" y="450" width="140" height="20" as="geometry" />
        </mxCell>
        <mxCell id="ciYijQNUN_vE_E4ubc4L-113" value="" style="shape=tableRow;horizontal=0;startSize=0;swimlaneHead=0;swimlaneBody=0;strokeColor=inherit;top=0;left=0;bottom=0;right=0;collapsible=0;dropTarget=0;fillColor=none;points=[[0,0.5],[1,0.5]];portConstraint=eastwest;" vertex="1" parent="ciYijQNUN_vE_E4ubc4L-112">
          <mxGeometry width="140" height="20" as="geometry" />
        </mxCell>
        <mxCell id="ciYijQNUN_vE_E4ubc4L-114" value="" style="shape=partialRectangle;html=1;whiteSpace=wrap;connectable=0;strokeColor=inherit;overflow=hidden;fillColor=none;top=0;left=0;bottom=0;right=0;pointerEvents=1;" vertex="1" parent="ciYijQNUN_vE_E4ubc4L-113">
          <mxGeometry width="47" height="20" as="geometry">
            <mxRectangle width="47" height="20" as="alternateBounds" />
          </mxGeometry>
        </mxCell>
        <mxCell id="ciYijQNUN_vE_E4ubc4L-115" value="" style="shape=partialRectangle;html=1;whiteSpace=wrap;connectable=0;strokeColor=inherit;overflow=hidden;fillColor=none;top=0;left=0;bottom=0;right=0;pointerEvents=1;" vertex="1" parent="ciYijQNUN_vE_E4ubc4L-113">
          <mxGeometry x="47" width="46" height="20" as="geometry">
            <mxRectangle width="46" height="20" as="alternateBounds" />
          </mxGeometry>
        </mxCell>
        <mxCell id="ciYijQNUN_vE_E4ubc4L-116" value="" style="shape=partialRectangle;html=1;whiteSpace=wrap;connectable=0;strokeColor=inherit;overflow=hidden;fillColor=none;top=0;left=0;bottom=0;right=0;pointerEvents=1;" vertex="1" parent="ciYijQNUN_vE_E4ubc4L-113">
          <mxGeometry x="93" width="47" height="20" as="geometry">
            <mxRectangle width="47" height="20" as="alternateBounds" />
          </mxGeometry>
        </mxCell>
        <mxCell id="ciYijQNUN_vE_E4ubc4L-117" value="" style="shape=table;startSize=0;container=1;collapsible=0;childLayout=tableLayout;" vertex="1" parent="1">
          <mxGeometry x="360" y="520" width="140" height="20" as="geometry" />
        </mxCell>
        <mxCell id="ciYijQNUN_vE_E4ubc4L-118" value="" style="shape=tableRow;horizontal=0;startSize=0;swimlaneHead=0;swimlaneBody=0;strokeColor=inherit;top=0;left=0;bottom=0;right=0;collapsible=0;dropTarget=0;fillColor=none;points=[[0,0.5],[1,0.5]];portConstraint=eastwest;" vertex="1" parent="ciYijQNUN_vE_E4ubc4L-117">
          <mxGeometry width="140" height="20" as="geometry" />
        </mxCell>
        <mxCell id="ciYijQNUN_vE_E4ubc4L-119" value="" style="shape=partialRectangle;html=1;whiteSpace=wrap;connectable=0;strokeColor=inherit;overflow=hidden;fillColor=none;top=0;left=0;bottom=0;right=0;pointerEvents=1;" vertex="1" parent="ciYijQNUN_vE_E4ubc4L-118">
          <mxGeometry width="47" height="20" as="geometry">
            <mxRectangle width="47" height="20" as="alternateBounds" />
          </mxGeometry>
        </mxCell>
        <mxCell id="ciYijQNUN_vE_E4ubc4L-120" value="" style="shape=partialRectangle;html=1;whiteSpace=wrap;connectable=0;strokeColor=inherit;overflow=hidden;fillColor=none;top=0;left=0;bottom=0;right=0;pointerEvents=1;" vertex="1" parent="ciYijQNUN_vE_E4ubc4L-118">
          <mxGeometry x="47" width="46" height="20" as="geometry">
            <mxRectangle width="46" height="20" as="alternateBounds" />
          </mxGeometry>
        </mxCell>
        <mxCell id="ciYijQNUN_vE_E4ubc4L-121" value="" style="shape=partialRectangle;html=1;whiteSpace=wrap;connectable=0;strokeColor=inherit;overflow=hidden;fillColor=none;top=0;left=0;bottom=0;right=0;pointerEvents=1;" vertex="1" parent="ciYijQNUN_vE_E4ubc4L-118">
          <mxGeometry x="93" width="47" height="20" as="geometry">
            <mxRectangle width="47" height="20" as="alternateBounds" />
          </mxGeometry>
        </mxCell>
        <mxCell id="ciYijQNUN_vE_E4ubc4L-122" value="" style="shape=table;startSize=0;container=1;collapsible=0;childLayout=tableLayout;" vertex="1" parent="1">
          <mxGeometry x="360" y="500" width="140" height="20" as="geometry" />
        </mxCell>
        <mxCell id="ciYijQNUN_vE_E4ubc4L-123" value="" style="shape=tableRow;horizontal=0;startSize=0;swimlaneHead=0;swimlaneBody=0;strokeColor=inherit;top=0;left=0;bottom=0;right=0;collapsible=0;dropTarget=0;fillColor=none;points=[[0,0.5],[1,0.5]];portConstraint=eastwest;" vertex="1" parent="ciYijQNUN_vE_E4ubc4L-122">
          <mxGeometry width="140" height="20" as="geometry" />
        </mxCell>
        <mxCell id="ciYijQNUN_vE_E4ubc4L-124" value="" style="shape=partialRectangle;html=1;whiteSpace=wrap;connectable=0;strokeColor=inherit;overflow=hidden;fillColor=none;top=0;left=0;bottom=0;right=0;pointerEvents=1;" vertex="1" parent="ciYijQNUN_vE_E4ubc4L-123">
          <mxGeometry width="47" height="20" as="geometry">
            <mxRectangle width="47" height="20" as="alternateBounds" />
          </mxGeometry>
        </mxCell>
        <mxCell id="ciYijQNUN_vE_E4ubc4L-125" value="" style="shape=partialRectangle;html=1;whiteSpace=wrap;connectable=0;strokeColor=inherit;overflow=hidden;fillColor=none;top=0;left=0;bottom=0;right=0;pointerEvents=1;" vertex="1" parent="ciYijQNUN_vE_E4ubc4L-123">
          <mxGeometry x="47" width="46" height="20" as="geometry">
            <mxRectangle width="46" height="20" as="alternateBounds" />
          </mxGeometry>
        </mxCell>
        <mxCell id="ciYijQNUN_vE_E4ubc4L-126" value="" style="shape=partialRectangle;html=1;whiteSpace=wrap;connectable=0;strokeColor=inherit;overflow=hidden;fillColor=none;top=0;left=0;bottom=0;right=0;pointerEvents=1;" vertex="1" parent="ciYijQNUN_vE_E4ubc4L-123">
          <mxGeometry x="93" width="47" height="20" as="geometry">
            <mxRectangle width="47" height="20" as="alternateBounds" />
          </mxGeometry>
        </mxCell>
        <mxCell id="ciYijQNUN_vE_E4ubc4L-127" value="" style="shape=table;startSize=0;container=1;collapsible=0;childLayout=tableLayout;" vertex="1" parent="1">
          <mxGeometry x="360" y="570" width="140" height="20" as="geometry" />
        </mxCell>
        <mxCell id="ciYijQNUN_vE_E4ubc4L-128" value="" style="shape=tableRow;horizontal=0;startSize=0;swimlaneHead=0;swimlaneBody=0;strokeColor=inherit;top=0;left=0;bottom=0;right=0;collapsible=0;dropTarget=0;fillColor=none;points=[[0,0.5],[1,0.5]];portConstraint=eastwest;" vertex="1" parent="ciYijQNUN_vE_E4ubc4L-127">
          <mxGeometry width="140" height="20" as="geometry" />
        </mxCell>
        <mxCell id="ciYijQNUN_vE_E4ubc4L-129" value="" style="shape=partialRectangle;html=1;whiteSpace=wrap;connectable=0;strokeColor=inherit;overflow=hidden;fillColor=none;top=0;left=0;bottom=0;right=0;pointerEvents=1;" vertex="1" parent="ciYijQNUN_vE_E4ubc4L-128">
          <mxGeometry width="47" height="20" as="geometry">
            <mxRectangle width="47" height="20" as="alternateBounds" />
          </mxGeometry>
        </mxCell>
        <mxCell id="ciYijQNUN_vE_E4ubc4L-130" value="" style="shape=partialRectangle;html=1;whiteSpace=wrap;connectable=0;strokeColor=inherit;overflow=hidden;fillColor=none;top=0;left=0;bottom=0;right=0;pointerEvents=1;" vertex="1" parent="ciYijQNUN_vE_E4ubc4L-128">
          <mxGeometry x="47" width="46" height="20" as="geometry">
            <mxRectangle width="46" height="20" as="alternateBounds" />
          </mxGeometry>
        </mxCell>
        <mxCell id="ciYijQNUN_vE_E4ubc4L-131" value="" style="shape=partialRectangle;html=1;whiteSpace=wrap;connectable=0;strokeColor=inherit;overflow=hidden;fillColor=none;top=0;left=0;bottom=0;right=0;pointerEvents=1;" vertex="1" parent="ciYijQNUN_vE_E4ubc4L-128">
          <mxGeometry x="93" width="47" height="20" as="geometry">
            <mxRectangle width="47" height="20" as="alternateBounds" />
          </mxGeometry>
        </mxCell>
        <mxCell id="ciYijQNUN_vE_E4ubc4L-132" value="" style="shape=table;startSize=0;container=1;collapsible=0;childLayout=tableLayout;" vertex="1" parent="1">
          <mxGeometry x="360" y="550" width="140" height="20" as="geometry" />
        </mxCell>
        <mxCell id="ciYijQNUN_vE_E4ubc4L-133" value="" style="shape=tableRow;horizontal=0;startSize=0;swimlaneHead=0;swimlaneBody=0;strokeColor=inherit;top=0;left=0;bottom=0;right=0;collapsible=0;dropTarget=0;fillColor=none;points=[[0,0.5],[1,0.5]];portConstraint=eastwest;" vertex="1" parent="ciYijQNUN_vE_E4ubc4L-132">
          <mxGeometry width="140" height="20" as="geometry" />
        </mxCell>
        <mxCell id="ciYijQNUN_vE_E4ubc4L-134" value="" style="shape=partialRectangle;html=1;whiteSpace=wrap;connectable=0;strokeColor=inherit;overflow=hidden;fillColor=none;top=0;left=0;bottom=0;right=0;pointerEvents=1;" vertex="1" parent="ciYijQNUN_vE_E4ubc4L-133">
          <mxGeometry width="47" height="20" as="geometry">
            <mxRectangle width="47" height="20" as="alternateBounds" />
          </mxGeometry>
        </mxCell>
        <mxCell id="ciYijQNUN_vE_E4ubc4L-135" value="" style="shape=partialRectangle;html=1;whiteSpace=wrap;connectable=0;strokeColor=inherit;overflow=hidden;fillColor=none;top=0;left=0;bottom=0;right=0;pointerEvents=1;" vertex="1" parent="ciYijQNUN_vE_E4ubc4L-133">
          <mxGeometry x="47" width="46" height="20" as="geometry">
            <mxRectangle width="46" height="20" as="alternateBounds" />
          </mxGeometry>
        </mxCell>
        <mxCell id="ciYijQNUN_vE_E4ubc4L-136" value="" style="shape=partialRectangle;html=1;whiteSpace=wrap;connectable=0;strokeColor=inherit;overflow=hidden;fillColor=none;top=0;left=0;bottom=0;right=0;pointerEvents=1;" vertex="1" parent="ciYijQNUN_vE_E4ubc4L-133">
          <mxGeometry x="93" width="47" height="20" as="geometry">
            <mxRectangle width="47" height="20" as="alternateBounds" />
          </mxGeometry>
        </mxCell>
        <mxCell id="ciYijQNUN_vE_E4ubc4L-137" value="" style="shape=table;startSize=0;container=1;collapsible=0;childLayout=tableLayout;" vertex="1" parent="1">
          <mxGeometry x="360" y="620" width="140" height="20" as="geometry" />
        </mxCell>
        <mxCell id="ciYijQNUN_vE_E4ubc4L-138" value="" style="shape=tableRow;horizontal=0;startSize=0;swimlaneHead=0;swimlaneBody=0;strokeColor=inherit;top=0;left=0;bottom=0;right=0;collapsible=0;dropTarget=0;fillColor=none;points=[[0,0.5],[1,0.5]];portConstraint=eastwest;" vertex="1" parent="ciYijQNUN_vE_E4ubc4L-137">
          <mxGeometry width="140" height="20" as="geometry" />
        </mxCell>
        <mxCell id="ciYijQNUN_vE_E4ubc4L-139" value="" style="shape=partialRectangle;html=1;whiteSpace=wrap;connectable=0;strokeColor=inherit;overflow=hidden;fillColor=none;top=0;left=0;bottom=0;right=0;pointerEvents=1;" vertex="1" parent="ciYijQNUN_vE_E4ubc4L-138">
          <mxGeometry width="47" height="20" as="geometry">
            <mxRectangle width="47" height="20" as="alternateBounds" />
          </mxGeometry>
        </mxCell>
        <mxCell id="ciYijQNUN_vE_E4ubc4L-140" value="" style="shape=partialRectangle;html=1;whiteSpace=wrap;connectable=0;strokeColor=inherit;overflow=hidden;fillColor=none;top=0;left=0;bottom=0;right=0;pointerEvents=1;" vertex="1" parent="ciYijQNUN_vE_E4ubc4L-138">
          <mxGeometry x="47" width="46" height="20" as="geometry">
            <mxRectangle width="46" height="20" as="alternateBounds" />
          </mxGeometry>
        </mxCell>
        <mxCell id="ciYijQNUN_vE_E4ubc4L-141" value="" style="shape=partialRectangle;html=1;whiteSpace=wrap;connectable=0;strokeColor=inherit;overflow=hidden;fillColor=none;top=0;left=0;bottom=0;right=0;pointerEvents=1;" vertex="1" parent="ciYijQNUN_vE_E4ubc4L-138">
          <mxGeometry x="93" width="47" height="20" as="geometry">
            <mxRectangle width="47" height="20" as="alternateBounds" />
          </mxGeometry>
        </mxCell>
        <mxCell id="ciYijQNUN_vE_E4ubc4L-142" value="" style="shape=table;startSize=0;container=1;collapsible=0;childLayout=tableLayout;" vertex="1" parent="1">
          <mxGeometry x="360" y="600" width="140" height="20" as="geometry" />
        </mxCell>
        <mxCell id="ciYijQNUN_vE_E4ubc4L-143" value="" style="shape=tableRow;horizontal=0;startSize=0;swimlaneHead=0;swimlaneBody=0;strokeColor=inherit;top=0;left=0;bottom=0;right=0;collapsible=0;dropTarget=0;fillColor=none;points=[[0,0.5],[1,0.5]];portConstraint=eastwest;" vertex="1" parent="ciYijQNUN_vE_E4ubc4L-142">
          <mxGeometry width="140" height="20" as="geometry" />
        </mxCell>
        <mxCell id="ciYijQNUN_vE_E4ubc4L-144" value="" style="shape=partialRectangle;html=1;whiteSpace=wrap;connectable=0;strokeColor=inherit;overflow=hidden;fillColor=none;top=0;left=0;bottom=0;right=0;pointerEvents=1;" vertex="1" parent="ciYijQNUN_vE_E4ubc4L-143">
          <mxGeometry width="47" height="20" as="geometry">
            <mxRectangle width="47" height="20" as="alternateBounds" />
          </mxGeometry>
        </mxCell>
        <mxCell id="ciYijQNUN_vE_E4ubc4L-145" value="" style="shape=partialRectangle;html=1;whiteSpace=wrap;connectable=0;strokeColor=inherit;overflow=hidden;fillColor=none;top=0;left=0;bottom=0;right=0;pointerEvents=1;" vertex="1" parent="ciYijQNUN_vE_E4ubc4L-143">
          <mxGeometry x="47" width="46" height="20" as="geometry">
            <mxRectangle width="46" height="20" as="alternateBounds" />
          </mxGeometry>
        </mxCell>
        <mxCell id="ciYijQNUN_vE_E4ubc4L-146" value="" style="shape=partialRectangle;html=1;whiteSpace=wrap;connectable=0;strokeColor=inherit;overflow=hidden;fillColor=none;top=0;left=0;bottom=0;right=0;pointerEvents=1;" vertex="1" parent="ciYijQNUN_vE_E4ubc4L-143">
          <mxGeometry x="93" width="47" height="20" as="geometry">
            <mxRectangle width="47" height="20" as="alternateBounds" />
          </mxGeometry>
        </mxCell>
        <mxCell id="ciYijQNUN_vE_E4ubc4L-149" value="&lt;font style=&quot;font-size: 16px;&quot;&gt;进程等待队列&lt;br&gt;数据接收队列&lt;br&gt;&lt;/font&gt;" style="rounded=1;whiteSpace=wrap;html=1;fontFamily=Comic Sans MS;fillColor=none;strokeColor=none;" vertex="1" parent="1">
          <mxGeometry x="261" y="589" width="120" height="60" as="geometry" />
        </mxCell>
        <mxCell id="ciYijQNUN_vE_E4ubc4L-158" value="&lt;font style=&quot;font-size: 16px;&quot;&gt;进程等待队列&lt;br&gt;数据接收队列&lt;br&gt;&lt;/font&gt;" style="rounded=1;whiteSpace=wrap;html=1;fontFamily=Comic Sans MS;fillColor=none;strokeColor=none;" vertex="1" parent="1">
          <mxGeometry x="260" y="390" width="120" height="60" as="geometry" />
        </mxCell>
        <mxCell id="ciYijQNUN_vE_E4ubc4L-161" value="&lt;font style=&quot;font-size: 16px;&quot;&gt;进程等待队列&lt;br&gt;数据接收队列&lt;br&gt;&lt;/font&gt;" style="rounded=1;whiteSpace=wrap;html=1;fontFamily=Comic Sans MS;fillColor=none;strokeColor=none;" vertex="1" parent="1">
          <mxGeometry x="260" y="440" width="120" height="60" as="geometry" />
        </mxCell>
        <mxCell id="ciYijQNUN_vE_E4ubc4L-164" value="&lt;font style=&quot;font-size: 16px;&quot;&gt;进程等待队列&lt;br&gt;数据接收队列&lt;br&gt;&lt;/font&gt;" style="rounded=1;whiteSpace=wrap;html=1;fontFamily=Comic Sans MS;fillColor=none;strokeColor=none;" vertex="1" parent="1">
          <mxGeometry x="261" y="485" width="120" height="60" as="geometry" />
        </mxCell>
        <mxCell id="ciYijQNUN_vE_E4ubc4L-165" value="&lt;font style=&quot;font-size: 16px;&quot;&gt;进程等待队列&lt;br&gt;数据接收队列&lt;br&gt;&lt;/font&gt;" style="rounded=1;whiteSpace=wrap;html=1;fontFamily=Comic Sans MS;fillColor=none;strokeColor=none;" vertex="1" parent="1">
          <mxGeometry x="260" y="540" width="120" height="60" as="geometry" />
        </mxCell>
        <mxCell id="ciYijQNUN_vE_E4ubc4L-166" style="edgeStyle=orthogonalEdgeStyle;rounded=0;orthogonalLoop=1;jettySize=auto;html=1;exitX=1;exitY=0.5;exitDx=0;exitDy=0;entryX=0;entryY=0.5;entryDx=0;entryDy=0;" edge="1" parent="1" source="ciYijQNUN_vE_E4ubc4L-72" target="ciYijQNUN_vE_E4ubc4L-91">
          <mxGeometry relative="1" as="geometry">
            <Array as="points">
              <mxPoint x="140" y="463" />
              <mxPoint x="140" y="420" />
            </Array>
          </mxGeometry>
        </mxCell>
        <mxCell id="ciYijQNUN_vE_E4ubc4L-167" style="edgeStyle=orthogonalEdgeStyle;rounded=0;orthogonalLoop=1;jettySize=auto;html=1;exitX=1;exitY=0.5;exitDx=0;exitDy=0;entryX=0;entryY=0.5;entryDx=0;entryDy=0;" edge="1" parent="1" source="ciYijQNUN_vE_E4ubc4L-74" target="ciYijQNUN_vE_E4ubc4L-92">
          <mxGeometry relative="1" as="geometry">
            <Array as="points">
              <mxPoint x="140" y="483" />
              <mxPoint x="140" y="470" />
            </Array>
          </mxGeometry>
        </mxCell>
        <mxCell id="ciYijQNUN_vE_E4ubc4L-168" style="edgeStyle=orthogonalEdgeStyle;rounded=0;orthogonalLoop=1;jettySize=auto;html=1;exitX=1;exitY=0.5;exitDx=0;exitDy=0;" edge="1" parent="1" source="ciYijQNUN_vE_E4ubc4L-78" target="ciYijQNUN_vE_E4ubc4L-93">
          <mxGeometry relative="1" as="geometry" />
        </mxCell>
        <mxCell id="ciYijQNUN_vE_E4ubc4L-169" style="edgeStyle=orthogonalEdgeStyle;rounded=0;orthogonalLoop=1;jettySize=auto;html=1;exitX=1;exitY=0.5;exitDx=0;exitDy=0;entryX=0;entryY=0.5;entryDx=0;entryDy=0;" edge="1" parent="1" source="ciYijQNUN_vE_E4ubc4L-80" target="ciYijQNUN_vE_E4ubc4L-94">
          <mxGeometry relative="1" as="geometry" />
        </mxCell>
        <mxCell id="ciYijQNUN_vE_E4ubc4L-170" style="edgeStyle=orthogonalEdgeStyle;rounded=0;orthogonalLoop=1;jettySize=auto;html=1;exitX=1;exitY=0.5;exitDx=0;exitDy=0;entryX=0;entryY=0.5;entryDx=0;entryDy=0;" edge="1" parent="1" source="ciYijQNUN_vE_E4ubc4L-84" target="ciYijQNUN_vE_E4ubc4L-95">
          <mxGeometry relative="1" as="geometry">
            <Array as="points">
              <mxPoint x="140" y="588" />
              <mxPoint x="140" y="620" />
            </Array>
          </mxGeometry>
        </mxCell>
      </root>
    </mxGraphModel>
  </diagram>
</mxfile>
